<?xml version="1.0" encoding="UTF-8" standalone="no"?><svg xmlns="http://www.w3.org/2000/svg" xmlns:xlink="http://www.w3.org/1999/xlink" style="isolation:isolate" viewBox="0 0 82 60" width="82pt" height="60pt"><defs><clipPath id="_clipPath_uVxN7z5cEvqPSLkMwID8BH9kSW6xYLrv"><rect width="82" height="60"/></clipPath></defs><g clip-path="url(#_clipPath_uVxN7z5cEvqPSLkMwID8BH9kSW6xYLrv)"><rect x="5" y="10.685" width="35.122" height="9.092" transform="matrix(-1,0,0,-1,45.122,30.462)" fill="rgb(153,153,153)"/><rect x="5" y="40.226" width="35.122" height="9.092" transform="matrix(-1,0,0,-1,45.122,89.544)" fill="rgb(153,153,153)"/><rect x="5" y="25.454" width="53.561" height="9.092" transform="matrix(-1,0,0,-1,63.561,60.001)" fill="rgb(153,153,153)"/><rect x="41.878" y="10.685" width="35.122" height="9.092" transform="matrix(-1,0,0,-1,118.878,30.462)" fill="rgb(153,153,153)"/><line x1="61.195" y1="30" x2="73.488" y2="30" vector-effect="non-scaling-stroke" stroke-width="2" stroke="rgb(153,153,153)" stroke-linejoin="round" stroke-linecap="round" stroke-miterlimit="3"/><line x1="44.512" y1="44.771" x2="73.488" y2="44.771" vector-effect="non-scaling-stroke" stroke-width="2" stroke="rgb(153,153,153)" stroke-linejoin="miter" stroke-linecap="round" stroke-miterlimit="3"/><path d=" M 52.31 39.327 L 41.421 44.771 L 52.31 50.216 Z " fill="rgb(153,153,153)" stroke="none"/><line x1="73.488" y1="44.771" x2="73.488" y2="30" vector-effect="non-scaling-stroke" stroke-width="2" stroke="rgb(153,153,153)" stroke-linejoin="round" stroke-linecap="square" stroke-miterlimit="3"/><linearGradient id="_lgradient_17" x1="-0.013796561111014908" y1="0.16957828422556975" x2="1.010876248181824" y2="0.8757449790224787" gradientTransform="matrix(35.122,0,0,9.091,5,40.226)" gradientUnits="userSpaceOnUse"><stop offset="1.6666666666666667%" stop-opacity="1" style="stop-color:rgb(0,160,157)"/><stop offset="98.33333333333333%" stop-opacity="1" style="stop-color:rgb(0,226,255)"/></linearGradient><rect x="5" y="40.226" width="35.122" height="9.091" transform="matrix(1,0,0,1,0,0)" fill="url(#_lgradient_17)" fill-opacity="0.7"/><linearGradient id="_lgradient_18" x1="-0.013796561111014908" y1="0.16957828422556975" x2="1.010876248181824" y2="0.8757449790224787" gradientTransform="matrix(53.561,0,0,9.091,5,25.454)" gradientUnits="userSpaceOnUse"><stop offset="1.6666666666666667%" stop-opacity="1" style="stop-color:rgb(0,160,157)"/><stop offset="98.33333333333333%" stop-opacity="1" style="stop-color:rgb(0,226,255)"/></linearGradient><rect x="5" y="25.454" width="53.561" height="9.091" transform="matrix(1,0,0,1,0,0)" fill="url(#_lgradient_18)" fill-opacity="0.7"/></g></svg>