<?xml version="1.0" encoding="UTF-8" standalone="no"?><svg xmlns="http://www.w3.org/2000/svg" xmlns:xlink="http://www.w3.org/1999/xlink" style="isolation:isolate" viewBox="0 0 82 60" width="82pt" height="60pt"><defs><clipPath id="_clipPath_AX8mXW5ehU2YtO2nmVfi2xTX4WlFHFoz"><rect width="82" height="60"/></clipPath></defs><g clip-path="url(#_clipPath_AX8mXW5ehU2YtO2nmVfi2xTX4WlFHFoz)"><rect x="5" y="10.685" width="72" height="38.631" transform="matrix(1,0,0,1,0,0)" fill="rgb(153,153,153)"/><rect x="9.611" y="32" width="62.779" height="12.423" transform="matrix(1,0,0,1,0,0)" fill="rgb(57,57,66)"/><rect x="9.611" y="15.577" width="62.779" height="12.423" transform="matrix(1,0,0,1,0,0)" fill="rgb(57,57,66)"/><linearGradient id="_lgradient_33" x1="-0.013796561111014908" y1="0.16957828422556975" x2="1.010876248181824" y2="0.8757449790224787" gradientTransform="matrix(62.779,0,0,12.423,9.611,15.577)" gradientUnits="userSpaceOnUse"><stop offset="1.6666666666666667%" stop-opacity="1" style="stop-color:rgb(0,160,157)"/><stop offset="98.33333333333333%" stop-opacity="1" style="stop-color:rgb(0,226,255)"/></linearGradient><rect x="9.611" y="15.577" width="62.779" height="12.423" transform="matrix(1,0,0,1,0,0)" fill="url(#_lgradient_33)" fill-opacity="0.7"/><linearGradient id="_lgradient_34" x1="-0.013796561111014908" y1="0.16957828422556975" x2="1.010876248181824" y2="0.8757449790224787" gradientTransform="matrix(62.779,0,0,12.424,9.611,32)" gradientUnits="userSpaceOnUse"><stop offset="1.6666666666666667%" stop-opacity="1" style="stop-color:rgb(0,160,157)"/><stop offset="98.33333333333333%" stop-opacity="1" style="stop-color:rgb(0,226,255)"/></linearGradient><rect x="9.611" y="32" width="62.779" height="12.424" transform="matrix(1,0,0,1,0,0)" fill="url(#_lgradient_34)" fill-opacity="0.7"/></g></svg>