<?xml version="1.0" encoding="UTF-8" standalone="no"?><svg xmlns="http://www.w3.org/2000/svg" xmlns:xlink="http://www.w3.org/1999/xlink" style="isolation:isolate" viewBox="0 0 82 60" width="82pt" height="60pt"><defs><clipPath id="_clipPath_zCTNzRXg1xHrp5VUtEUQK0jBhj9CC9kk"><rect width="82" height="60"/></clipPath></defs><g clip-path="url(#_clipPath_zCTNzRXg1xHrp5VUtEUQK0jBhj9CC9kk)"><rect x="5" y="10.685" width="20" height="17.315" transform="matrix(1,0,0,1,0,0)" fill="rgb(153,153,153)"/><linearGradient id="_lgradient_21" x1="-0.013796561111014908" y1="0.16957828422556975" x2="1.010876248181824" y2="0.8757449790224787" gradientTransform="matrix(19.779,0,0,17.315,5.221,10.685)" gradientUnits="userSpaceOnUse"><stop offset="1.6666666666666667%" stop-opacity="1" style="stop-color:rgb(0,160,157)"/><stop offset="98.33333333333333%" stop-opacity="1" style="stop-color:rgb(0,226,255)"/></linearGradient><rect x="5.221" y="10.685" width="19.779" height="17.315" transform="matrix(1,0,0,1,0,0)" fill="url(#_lgradient_21)" fill-opacity="0.7"/><linearGradient id="_lgradient_22" x1="-0.013796561111014908" y1="0.16957828422556975" x2="1.010876248181824" y2="0.8757449790224787" gradientTransform="matrix(19.779,0,0,17.315,31.111,10.685)" gradientUnits="userSpaceOnUse"><stop offset="1.6666666666666667%" stop-opacity="1" style="stop-color:rgb(0,160,157)"/><stop offset="98.33333333333333%" stop-opacity="1" style="stop-color:rgb(0,226,255)"/></linearGradient><rect x="31.111" y="10.685" width="19.779" height="17.315" transform="matrix(1,0,0,1,0,0)" fill="url(#_lgradient_22)" fill-opacity="0.7"/><linearGradient id="_lgradient_23" x1="-0.013796561111014908" y1="0.16957828422556975" x2="1.010876248181824" y2="0.8757449790224787" gradientTransform="matrix(19.779,0,0,17.315,5,32)" gradientUnits="userSpaceOnUse"><stop offset="1.6666666666666667%" stop-opacity="1" style="stop-color:rgb(0,160,157)"/><stop offset="98.33333333333333%" stop-opacity="1" style="stop-color:rgb(0,226,255)"/></linearGradient><rect x="5" y="32" width="19.779" height="17.315" transform="matrix(1,0,0,1,0,0)" fill="url(#_lgradient_23)" fill-opacity="0.7"/><linearGradient id="_lgradient_24" x1="-0.013796561111014908" y1="0.16957828422556975" x2="1.010876248181824" y2="0.8757449790224787" gradientTransform="matrix(19.779,0,0,17.315,57.221,10.685)" gradientUnits="userSpaceOnUse"><stop offset="1.6666666666666667%" stop-opacity="1" style="stop-color:rgb(0,160,157)"/><stop offset="98.33333333333333%" stop-opacity="1" style="stop-color:rgb(0,226,255)"/></linearGradient><rect x="57.221" y="10.685" width="19.779" height="17.315" transform="matrix(1,0,0,1,0,0)" fill="url(#_lgradient_24)" fill-opacity="0.7"/><linearGradient id="_lgradient_25" x1="-0.013796561111014908" y1="0.16957828422556975" x2="1.010876248181824" y2="0.8757449790224787" gradientTransform="matrix(19.779,0,0,17.315,57,32)" gradientUnits="userSpaceOnUse"><stop offset="1.6666666666666667%" stop-opacity="1" style="stop-color:rgb(0,160,157)"/><stop offset="98.33333333333333%" stop-opacity="1" style="stop-color:rgb(0,226,255)"/></linearGradient><rect x="57" y="32" width="19.779" height="17.315" transform="matrix(1,0,0,1,0,0)" fill="url(#_lgradient_25)" fill-opacity="0.7"/><linearGradient id="_lgradient_26" x1="-0.013796561111014908" y1="0.16957828422556975" x2="1.010876248181824" y2="0.8757449790224787" gradientTransform="matrix(19.779,0,0,17.315,31.111,10.685)" gradientUnits="userSpaceOnUse"><stop offset="1.6666666666666667%" stop-opacity="1" style="stop-color:rgb(0,160,157)"/><stop offset="98.33333333333333%" stop-opacity="1" style="stop-color:rgb(0,226,255)"/></linearGradient><rect x="31.111" y="10.685" width="19.779" height="17.315" transform="matrix(1,0,0,1,0,0)" fill="url(#_lgradient_26)" fill-opacity="0.7"/><linearGradient id="_lgradient_27" x1="-0.013796561111014908" y1="0.16957828422556975" x2="1.010876248181824" y2="0.8757449790224787" gradientTransform="matrix(19.779,0,0,17.315,57.221,10.685)" gradientUnits="userSpaceOnUse"><stop offset="1.6666666666666667%" stop-opacity="1" style="stop-color:rgb(0,160,157)"/><stop offset="98.33333333333333%" stop-opacity="1" style="stop-color:rgb(0,226,255)"/></linearGradient><rect x="57.221" y="10.685" width="19.779" height="17.315" transform="matrix(1,0,0,1,0,0)" fill="url(#_lgradient_27)" fill-opacity="0.7"/><linearGradient id="_lgradient_28" x1="-0.013796561111014908" y1="0.16957828422556975" x2="1.010876248181824" y2="0.8757449790224787" gradientTransform="matrix(19.779,0,0,17.315,57,32)" gradientUnits="userSpaceOnUse"><stop offset="1.6666666666666667%" stop-opacity="1" style="stop-color:rgb(0,160,157)"/><stop offset="98.33333333333333%" stop-opacity="1" style="stop-color:rgb(0,226,255)"/></linearGradient><rect x="57" y="32" width="19.779" height="17.315" transform="matrix(1,0,0,1,0,0)" fill="url(#_lgradient_28)" fill-opacity="0.7"/><linearGradient id="_lgradient_29" x1="-0.013796561111014908" y1="0.16957828422556975" x2="1.010876248181824" y2="0.8757449790224787" gradientTransform="matrix(19.779,0,0,17.315,30.889,32)" gradientUnits="userSpaceOnUse"><stop offset="1.6666666666666667%" stop-opacity="1" style="stop-color:rgb(0,160,157)"/><stop offset="98.33333333333333%" stop-opacity="1" style="stop-color:rgb(0,226,255)"/></linearGradient><rect x="30.889" y="32" width="19.779" height="17.315" transform="matrix(1,0,0,1,0,0)" fill="url(#_lgradient_29)" fill-opacity="0.7"/><linearGradient id="_lgradient_30" x1="-0.013796561111014908" y1="0.16957828422556975" x2="1.010876248181824" y2="0.8757449790224787" gradientTransform="matrix(19.779,0,0,17.315,30.889,32)" gradientUnits="userSpaceOnUse"><stop offset="1.6666666666666667%" stop-opacity="1" style="stop-color:rgb(0,160,157)"/><stop offset="98.33333333333333%" stop-opacity="1" style="stop-color:rgb(0,226,255)"/></linearGradient><rect x="30.889" y="32" width="19.779" height="17.315" transform="matrix(1,0,0,1,0,0)" fill="url(#_lgradient_30)" fill-opacity="0.7"/><linearGradient id="_lgradient_31" x1="-0.013796561111014908" y1="0.16957828422556975" x2="1.010876248181824" y2="0.8757449790224787" gradientTransform="matrix(19.779,0,0,17.315,5,32)" gradientUnits="userSpaceOnUse"><stop offset="1.6666666666666667%" stop-opacity="1" style="stop-color:rgb(0,160,157)"/><stop offset="98.33333333333333%" stop-opacity="1" style="stop-color:rgb(0,226,255)"/></linearGradient><rect x="5" y="32" width="19.779" height="17.315" transform="matrix(1,0,0,1,0,0)" fill="url(#_lgradient_31)" fill-opacity="0.7"/></g></svg>