<?xml version="1.0" encoding="UTF-8" standalone="no"?>
<svg xmlns="http://www.w3.org/2000/svg"
    xmlns:xlink="http://www.w3.org/1999/xlink" style="isolation:isolate" viewBox="0 0 250 250" width="250pt" height="250pt">
    <defs>
        <clipPath id="_clipPath_MZKQPqO5KTMhLhMZXphzn54NGSAeYrhN">
            <rect width="250" height="250"/>
        </clipPath>
    </defs>
    <g clip-path="url(#_clipPath_MZKQPqO5KTMhLhMZXphzn54NGSAeYrhN)">
        <rect width="250" height="250" style="fill:rgb(0,0,0)" fill-opacity="0"/>
        <defs>
            <filter id="IBEgruxOybyuqBdIHgFW8eFi9wmQZ1tW" x="-200%" y="-200%" width="400%" height="400%" filterUnits="objectBoundingBox" color-interpolation-filters="sRGB">
                <feOffset xmlns="http://www.w3.org/2000/svg" in="SourceGraphic" dx="0" dy="3"/>
                <feGaussianBlur xmlns="http://www.w3.org/2000/svg" stdDeviation="2.146804531419514" result="pf_100_offsetBlur"/>
                <feComposite xmlns="http://www.w3.org/2000/svg" in="SourceGraphic" in2="pf_100_offsetBlur" result="pf_100_inverse" operator="out"/>
                <feFlood xmlns="http://www.w3.org/2000/svg" flood-color="#FFFFFF" flood-opacity="0.5" result="pf_100_color"/>
                <feComposite xmlns="http://www.w3.org/2000/svg" in="pf_100_color" in2="pf_100_inverse" operator="in" result="pf_100_shadow"/>
                <feComposite xmlns="http://www.w3.org/2000/svg" in="pf_100_shadow" in2="SourceGraphic" operator="over" result="_out_6AIiHCRp1w0tNyMtnxEIKKIpG8FziNzd"/>
                <feOffset xmlns="http://www.w3.org/2000/svg" in="_out_6AIiHCRp1w0tNyMtnxEIKKIpG8FziNzd" dx="0" dy="-3"/>
                <feGaussianBlur xmlns="http://www.w3.org/2000/svg" stdDeviation="2.146804531419514" result="pf_101_offsetBlur"/>
                <feComposite xmlns="http://www.w3.org/2000/svg" in="_out_6AIiHCRp1w0tNyMtnxEIKKIpG8FziNzd" in2="pf_101_offsetBlur" result="pf_101_inverse" operator="out"/>
                <feFlood xmlns="http://www.w3.org/2000/svg" flood-color="#000000" flood-opacity="0.5" result="pf_101_color"/>
                <feComposite xmlns="http://www.w3.org/2000/svg" in="pf_101_color" in2="pf_101_inverse" operator="in" result="pf_101_shadow"/>
                <feComposite xmlns="http://www.w3.org/2000/svg" in="pf_101_shadow" in2="_out_6AIiHCRp1w0tNyMtnxEIKKIpG8FziNzd" operator="over" result="_out_zB2Evds7KBJLnpAhFRbIQZXUSwo9Qmjp"/>
                <feMerge>
                    <feMergeNode in="_out_zB2Evds7KBJLnpAhFRbIQZXUSwo9Qmjp"/>
                </feMerge>
            </filter>
        </defs>
        <g filter="url(#IBEgruxOybyuqBdIHgFW8eFi9wmQZ1tW)">
            <path d="M 15 0 L 235 0 C 243.279 0 250 6.721 250 15 L 250 235 C 250 243.279 243.279 250 235 250 L 15 250 C 6.721 250 0 243.279 0 235 L 0 15 C 0 6.721 6.721 0 15 0 Z" style="stroke:none;fill:#5DA878;stroke-miterlimit:10;"/>
        </g>
        <defs>
            <filter id="Z8kAg9xll7UFBguTuYQ4fIasWTIpFycw" x="-200%" y="-200%" width="400%" height="400%" filterUnits="objectBoundingBox" color-interpolation-filters="sRGB">
                <feGaussianBlur xmlns="http://www.w3.org/2000/svg" in="SourceGraphic" stdDeviation="2.146804531419514"/>
                <feOffset xmlns="http://www.w3.org/2000/svg" dx="-5" dy="5" result="pf_100_offsetBlur"/>
                <feFlood xmlns="http://www.w3.org/2000/svg" flood-color="#000000" flood-opacity="0.5"/>
                <feComposite xmlns="http://www.w3.org/2000/svg" in2="pf_100_offsetBlur" operator="in" result="pf_100_dropShadow"/>
                <feBlend xmlns="http://www.w3.org/2000/svg" in="SourceGraphic" in2="pf_100_dropShadow" mode="normal"/>
            </filter>
        </defs>
        <g filter="url(#Z8kAg9xll7UFBguTuYQ4fIasWTIpFycw)">
            <path d=" M 92.083 63.281 L 92.083 87.969 C 92.083 92.059 88.767 95.375 84.677 95.375 L 53.406 95.375 C 49.316 95.375 46 92.059 46 87.969 L 46 63.281 C 46 59.191 49.316 55.875 53.406 55.875 L 84.677 55.875 C 88.767 55.875 92.083 59.191 92.083 63.281 Z  M 148.042 137.344 L 148.042 112.656 C 148.042 108.566 144.726 105.25 140.636 105.25 L 109.364 105.25 C 105.274 105.25 101.958 108.566 101.958 112.656 L 101.958 137.344 C 101.958 141.434 105.274 144.75 109.364 144.75 L 140.635 144.75 C 144.726 144.75 148.042 141.434 148.042 137.344 L 148.042 137.344 Z  M 157.917 63.281 L 157.917 87.969 C 157.917 92.059 161.233 95.375 165.323 95.375 L 196.594 95.375 C 200.684 95.375 204 92.059 204 87.969 L 204 63.281 C 204 59.191 200.684 55.875 196.594 55.875 L 165.323 55.875 C 161.233 55.875 157.917 59.191 157.917 63.281 L 157.917 63.281 Z  M 148.042 87.969 L 148.042 63.281 C 148.042 59.191 144.726 55.875 140.636 55.875 L 109.364 55.875 C 105.274 55.875 101.958 59.191 101.958 63.281 L 101.958 87.969 C 101.958 92.059 105.274 95.375 109.364 95.375 L 140.635 95.375 C 144.726 95.375 148.042 92.059 148.042 87.969 L 148.042 87.969 Z  M 84.677 105.25 L 53.406 105.25 C 49.316 105.25 46 108.566 46 112.656 L 46 137.344 C 46 141.434 49.316 144.75 53.406 144.75 L 84.677 144.75 C 88.767 144.75 92.083 141.434 92.083 137.344 L 92.083 112.656 C 92.083 108.566 88.767 105.25 84.677 105.25 L 84.677 105.25 Z  M 46 162.031 L 46 186.719 C 46 190.809 49.316 194.125 53.406 194.125 L 84.677 194.125 C 88.767 194.125 92.083 190.809 92.083 186.719 L 92.083 162.031 C 92.083 157.941 88.767 154.625 84.677 154.625 L 53.406 154.625 C 49.316 154.625 46 157.941 46 162.031 Z  M 165.323 144.75 L 196.594 144.75 C 200.684 144.75 204 141.434 204 137.344 L 204 112.656 C 204 108.566 200.684 105.25 196.594 105.25 L 165.323 105.25 C 161.233 105.25 157.917 108.566 157.917 112.656 L 157.917 137.344 C 157.917 141.434 161.233 144.75 165.323 144.75 Z  M 165.323 194.125 L 196.594 194.125 C 200.684 194.125 204 190.809 204 186.719 L 204 162.031 C 204 157.941 200.684 154.625 196.594 154.625 L 165.323 154.625 C 161.233 154.625 157.917 157.941 157.917 162.031 L 157.917 186.719 C 157.917 190.809 161.233 194.125 165.323 194.125 Z  M 101.958 162.031 L 101.958 186.719 C 101.958 190.809 105.274 194.125 109.364 194.125 L 140.635 194.125 C 144.726 194.125 148.041 190.809 148.041 186.719 L 148.041 162.031 C 148.041 157.941 144.726 154.625 140.635 154.625 L 109.364 154.625 C 105.274 154.625 101.958 157.941 101.958 162.031 Z " fill="rgb(255,255,255)"/>
        </g>
    </g>
</svg>